<svg width="19" height="32" viewBox="0 0 19 32" fill="none" xmlns="http://www.w3.org/2000/svg">
<path d="M0.70437 0.704369C0.253362 1.15551 0 1.76731 0 2.40523C0 3.04315 0.253362 3.65495 0.70437 4.10609L12.6128 16.0145L0.70437 27.923C0.266144 28.3767 0.0236574 28.9844 0.0291387 29.6152C0.03462 30.2459 0.28763 30.8493 0.733675 31.2954C1.17972 31.7414 1.78311 31.9944 2.41389 31.9999C3.04467 32.0054 3.65236 31.7629 4.10609 31.3247L17.7154 17.7154C18.1664 17.2642 18.4198 16.6524 18.4198 16.0145C18.4198 15.3766 18.1664 14.7648 17.7154 14.3137L4.10609 0.704369C3.65495 0.253362 3.04315 0 2.40523 0C1.76731 0 1.15551 0.253362 0.70437 0.704369Z" fill="#FF3B01"/>
</svg>
