<svg width="56" height="51" viewBox="0 0 56 51" fill="none" xmlns="http://www.w3.org/2000/svg">
<path d="M1.75 22.55C1.75 12.7448 1.75 7.84219 4.79608 4.79608C7.84219 1.75 12.7448 1.75 22.55 1.75H32.95C42.7551 1.75 47.6579 1.75 50.7038 4.79608C53.75 7.84219 53.75 12.7448 53.75 22.55V27.75C53.75 37.5551 53.75 42.4579 50.7038 45.5038C47.6579 48.55 42.7551 48.55 32.95 48.55H22.55C12.7448 48.55 7.84219 48.55 4.79608 45.5038C1.75 42.4579 1.75 37.5551 1.75 27.75V22.55Z" stroke="white" stroke-width="3.5"/>
<path d="M3.0498 14.75H52.4498" stroke="white" stroke-width="3.5" stroke-linecap="round"/>
<path d="M43.3499 35.55C43.3499 36.9859 42.1859 38.15 40.7499 38.15C39.3139 38.15 38.1499 36.9859 38.1499 35.55C38.1499 34.114 39.3139 32.95 40.7499 32.95C42.1859 32.95 43.3499 34.114 43.3499 35.55Z" fill="white" stroke="white"/>
<path d="M43.3499 25.15C43.3499 26.586 42.1859 27.75 40.7499 27.75C39.3139 27.75 38.1499 26.586 38.1499 25.15C38.1499 23.7141 39.3139 22.55 40.7499 22.55C42.1859 22.55 43.3499 23.7141 43.3499 25.15Z" fill="white" stroke="white"/>
<path d="M30.3499 35.55C30.3499 36.9859 29.1859 38.15 27.7499 38.15C26.3139 38.15 25.1499 36.9859 25.1499 35.55C25.1499 34.114 26.3139 32.95 27.7499 32.95C29.1859 32.95 30.3499 34.114 30.3499 35.55Z" fill="white" stroke="white"/>
<path d="M30.3499 25.15C30.3499 26.586 29.1859 27.75 27.7499 27.75C26.3139 27.75 25.1499 26.586 25.1499 25.15C25.1499 23.7141 26.3139 22.55 27.7499 22.55C29.1859 22.55 30.3499 23.7141 30.3499 25.15Z" fill="white" stroke="white"/>
<path d="M17.3499 35.55C17.3499 36.9859 16.1858 38.15 14.7499 38.15C13.314 38.15 12.1499 36.9859 12.1499 35.55C12.1499 34.114 13.314 32.95 14.7499 32.95C16.1858 32.95 17.3499 34.114 17.3499 35.55Z" fill="white" stroke="white"/>
<path d="M17.3499 25.15C17.3499 26.586 16.1858 27.75 14.7499 27.75C13.314 27.75 12.1499 26.586 12.1499 25.15C12.1499 23.7141 13.314 22.55 14.7499 22.55C16.1858 22.55 17.3499 23.7141 17.3499 25.15Z" fill="white" stroke="white"/>
</svg>
