<svg width="133" height="96" viewBox="0 0 133 96" fill="none" xmlns="http://www.w3.org/2000/svg">
<path d="M101.897 24.0081C117.278 23.2658 127.902 25.6352 129.362 31.0926C131.91 40.594 105.728 55.8675 70.8753 65.2086C36.0288 74.5438 5.71927 74.4131 3.1717 64.9058C1.66335 59.2762 10.2265 51.6275 24.6984 44.3886" stroke="white" stroke-width="6" stroke-linecap="round" stroke-linejoin="round"/>
<path fill-rule="evenodd" clip-rule="evenodd" d="M18.7603 47.9992C18.7614 41.6384 20.0398 35.3425 22.5197 29.4851C24.9997 23.6276 28.6307 18.3278 33.1974 13.9C37.764 9.47216 43.1734 6.0065 49.1046 3.70853C55.0358 1.41057 61.3681 0.327108 67.726 0.522397C74.0838 0.717686 80.3377 2.18775 86.1167 4.84541C91.8957 7.50307 97.0821 11.2942 101.368 15.9939C105.655 20.6937 108.954 26.2064 111.069 32.205C113.185 38.2036 114.075 44.566 113.685 50.9149C103.869 56.1348 90.502 61.3309 75.2819 65.4046C58.215 69.9772 42.4664 72.1744 30.8746 72.1209C28.98 72.1175 27.0862 72.0403 25.1975 71.8893C20.9695 64.6384 18.7478 56.3927 18.7603 47.9992ZM35.1859 83.9264C40.9079 88.8735 47.7281 92.3833 55.0795 94.1641C62.4309 95.9449 70.1012 95.9453 77.4528 94.1652C84.8043 92.3851 91.6249 88.8759 97.3473 83.9294C103.07 78.9829 107.529 72.7419 110.354 65.7253C101.084 69.8643 90.1635 73.7184 78.352 76.8835C62.5084 81.1295 47.4249 83.5048 35.1859 83.9264Z" fill="white" stroke="white"/>
</svg>
