<svg width="85" height="85" viewBox="0 0 85 85" fill="none" xmlns="http://www.w3.org/2000/svg">
<path d="M42.5 30.9091C40.3661 30.9091 38.6363 32.6389 38.6363 34.7728V55.1248C36.3267 56.4609 34.7727 58.958 34.7727 61.8182C34.7727 66.086 38.2322 69.5455 42.5 69.5455C46.7677 69.5455 50.2273 66.086 50.2273 61.8182C50.2273 58.958 48.6733 56.4609 46.3636 55.1248V34.7728C46.3636 32.6389 44.6339 30.9091 42.5 30.9091Z" fill="white"/>
<path d="M38.6362 19.3182C38.6362 17.1844 40.366 15.4545 42.4999 15.4545C44.6338 15.4545 46.3635 17.1844 46.3635 19.3182C46.3635 21.452 44.6338 23.1818 42.4999 23.1818C40.366 23.1818 38.6362 21.452 38.6362 19.3182Z" fill="white"/>
<path d="M57.9547 23.1818C55.8208 23.1818 54.0911 24.9117 54.0911 27.0455C54.0911 29.1793 55.8208 30.9091 57.9547 30.9091C60.0886 30.9091 61.8183 29.1793 61.8183 27.0455C61.8183 24.9117 60.0886 23.1818 57.9547 23.1818Z" fill="white"/>
<path d="M19.318 46.3636C17.1842 46.3636 15.4543 44.6339 15.4543 42.5C15.4543 40.3661 17.1842 38.6364 19.318 38.6364C21.4518 38.6364 23.1816 40.3661 23.1816 42.5C23.1816 44.6339 21.4518 46.3636 19.318 46.3636Z" fill="white"/>
<path d="M23.1819 27.0455C23.1819 29.1793 24.9117 30.9091 27.0455 30.9091C29.1793 30.9091 30.9092 29.1793 30.9092 27.0455C30.9092 24.9117 29.1793 23.1818 27.0455 23.1818C24.9117 23.1818 23.1819 24.9117 23.1819 27.0455Z" fill="white"/>
<path d="M65.6818 46.3636C63.5479 46.3636 61.8181 44.6339 61.8181 42.5C61.8181 40.3661 63.5479 38.6364 65.6818 38.6364C67.8156 38.6364 69.5454 40.3661 69.5454 42.5C69.5454 44.6339 67.8156 46.3636 65.6818 46.3636Z" fill="white"/>
<path fill-rule="evenodd" clip-rule="evenodd" d="M42.5 85C65.972 85 85 65.972 85 42.5C85 19.0279 65.972 0 42.5 0C19.0279 0 0 19.0279 0 42.5C0 65.972 19.0279 85 42.5 85ZM42.5 77.2465C23.3101 77.2465 7.75366 61.6899 7.75366 42.5C7.75366 23.3101 23.3101 7.75366 42.5 7.75366C61.6899 7.75366 77.2465 23.3101 77.2465 42.5C77.2465 61.6899 61.6899 77.2465 42.5 77.2465Z" fill="white"/>
</svg>
