<svg width="92" height="86" viewBox="0 0 92 86" fill="none" xmlns="http://www.w3.org/2000/svg">
<path d="M15.435 62.2472L76.1203 62.2114C82.4217 61.4688 87.6018 57.3265 89.8206 51.6961L89.8594 51.5827C90.8644 48.9494 91.4489 45.9016 91.4489 42.7196C91.4489 36.943 89.5313 31.6167 86.2956 27.3402L86.3434 27.4028C83.8681 24.0926 80.3401 21.6859 76.2634 20.672L76.1412 20.6451C76.2992 19.9592 76.3887 19.1749 76.3887 18.3667C76.3887 18.2086 76.3857 18.0536 76.3797 17.8985V17.9194C76.1829 14.8656 74.8558 12.1577 72.819 10.1745L72.816 10.1715C70.1051 7.46071 66.3595 5.78469 62.2231 5.78469C59.7449 5.78469 57.4038 6.3871 55.3461 7.45474L55.4296 7.41597C47.2553 -1.62614 32.9228 -1.16389 22.5595 5.11668C15.9539 8.34344 11.4835 15.0147 11.4835 22.7297C11.4835 24.2685 11.6625 25.7656 11.9965 27.203L11.9696 27.0718C5.1642 30.063 0.5 36.7432 0.5 44.5149C0.5 44.8369 0.508947 45.159 0.523858 45.4781L0.520875 45.4334C0.517893 45.5527 0.517893 45.6928 0.517893 45.83C0.517893 49.9306 1.83604 53.724 4.07271 56.8076L4.03394 56.7539C6.61058 60.1089 10.6247 62.2501 15.1397 62.2501C15.2471 62.2501 15.3515 62.2501 15.4588 62.2472H15.4439H15.435ZM17.2571 33.6566C19.3149 33.6566 20.9849 31.9865 20.9849 29.9288C20.9849 29.2131 20.7851 28.545 20.4362 27.9784L20.4451 27.9933C16.2372 21.0537 20.7702 14.9192 26.4215 11.4927C29.9823 9.33056 34.2737 8.02435 38.8633 7.95277H38.8842C39.1019 7.94084 39.3554 7.93488 39.6119 7.93488C44.5922 7.93488 48.9641 10.5443 51.4334 14.4689L51.4662 14.5256C52.1313 15.6081 53.3092 16.3179 54.6512 16.3179C55.6741 16.3179 56.6016 15.9064 57.2726 15.2383C58.5729 13.9739 60.3473 13.1925 62.3066 13.1925C64.3524 13.1925 66.2014 14.0455 67.5166 15.4143L67.5195 15.4173C68.2949 16.133 68.8138 17.1171 68.9272 18.2206L68.9301 18.2385C68.8884 19.5178 68.2979 20.6541 67.3883 21.4205L67.3824 21.4265C66.6994 22.1004 66.276 23.0398 66.276 24.0747C66.276 24.6741 66.4191 25.2407 66.6696 25.7447L66.6607 25.7239C67.2929 26.9645 68.5603 27.7995 70.0216 27.7995C70.1946 27.7995 70.3646 27.7876 70.5316 27.7667L70.5137 27.7697C70.9789 27.6951 71.5157 27.6534 72.0645 27.6534C75.5149 27.6534 78.5687 29.3443 80.4415 31.9418L80.4624 31.9716C82.6812 34.93 84.0172 38.6607 84.0172 42.7046C84.0172 44.8757 83.6325 46.9573 82.9257 48.8838L82.9645 48.7586C81.8044 51.9376 79.0369 54.2697 75.67 54.7827L75.6193 54.7886H15.4409C15.3396 54.7946 15.2173 54.7976 15.098 54.7976C13.0075 54.7976 11.1495 53.7985 9.97751 52.2537L9.96558 52.2388C8.71603 50.4465 7.97047 48.2218 7.97047 45.824C7.97047 45.6869 7.97346 45.5497 7.97644 45.4125V45.4334C7.97644 40.6976 10.4487 33.6566 17.2631 33.6566H17.2571ZM73.5794 69.8429C73.5764 67.7852 71.9094 66.1181 69.8516 66.1151H4.24269C2.18496 66.1151 0.514911 67.7852 0.514911 69.8429C0.514911 71.9006 2.18496 73.5707 4.24269 73.5707H69.8516C71.9094 73.5677 73.5764 71.9006 73.5794 69.8429ZM28.1005 78.044H10.2071C8.14941 78.044 6.47936 79.7141 6.47936 81.7718C6.47936 83.8295 8.14941 85.4996 10.2071 85.4996H28.1005C30.1582 85.4996 31.8283 83.8295 31.8283 81.7718C31.8283 79.7141 30.1582 78.044 28.1005 78.044ZM87.745 78.044H40.0294C37.9717 78.044 36.3016 79.7141 36.3016 81.7718C36.3016 83.8295 37.9717 85.4996 40.0294 85.4996H87.745C89.8027 85.4996 91.4728 83.8295 91.4728 81.7718C91.4728 79.7141 89.8027 78.044 87.745 78.044Z" fill="white" stroke="white"/>
</svg>
