<svg width="37" height="85" viewBox="0 0 37 85" fill="none" xmlns="http://www.w3.org/2000/svg">
<path d="M18.1579 85C28.1579 85 36.3158 76.8421 36.3158 66.8421C36.3158 61.0526 33.6842 55.7895 29.0789 52.3684V10.9211C29.0789 8.02631 27.8947 5.26316 25.9211 3.15789C23.8158 1.05263 21.0526 0 18.1579 0C12.1053 0 7.23684 4.86842 7.23684 10.9211V52.3684C2.76316 55.7895 0 61.0526 0 66.8421C0 76.8421 8.15789 85 18.1579 85ZM11.3158 56.0526L12.5 55.2632V40.1316H18.1579V34.8684H12.5V32.5H18.1579V27.2368H12.5V24.8684H18.1579V19.6053H12.5V17.2368H18.1579V11.9737H12.5V10.9211C12.5 7.76316 15 5.26316 18.1579 5.26316C19.6053 5.26316 21.0526 5.78947 22.1053 6.97368C23.1579 8.02631 23.8158 9.47368 23.8158 10.9211V55.1316L25 55.921C28.6842 58.2895 30.921 62.3684 30.921 66.7105C30.921 73.8158 25.1316 79.6052 18.0263 79.6052C10.9211 79.6052 5.13158 73.8158 5.13158 66.7105C5.26315 62.3684 7.5 58.421 11.3158 56.0526Z" fill="white"/>
<path d="M18.1579 77.5C24.0789 77.5 28.8158 72.7632 28.8158 66.8421C28.8158 61.8421 25.3947 57.7632 20.7895 56.579V45.9211H15.5263V56.579C10.9211 57.7632 7.5 61.9737 7.5 66.8421C7.5 72.7632 12.2368 77.5 18.1579 77.5ZM18.1579 61.4474C21.1842 61.4474 23.5526 63.8158 23.5526 66.8421C23.5526 69.8685 21.1842 72.2369 18.1579 72.2369C15.1316 72.2369 12.7632 69.8685 12.7632 66.8421C12.7632 63.8158 15.1316 61.4474 18.1579 61.4474Z" fill="white"/>
</svg>
