<svg width="85" height="85" viewBox="0 0 85 85" fill="none" xmlns="http://www.w3.org/2000/svg">
<path d="M54.0638 7.72717C51.9423 7.71264 50.2272 5.98846 50.2272 3.86361C50.2272 1.7844 52.0315 -0.00614279 54.1082 1.58403e-05C56.6814 0.0270227 59.323 0.711079 61.6141 1.85676C63.5212 2.81035 65.5461 4.30144 67.0854 6.61039C68.6409 8.94352 69.5454 11.8807 69.5454 15.4545C69.5454 19.0283 68.6409 21.9656 67.0854 24.2987C65.5461 26.6076 63.5212 28.0987 61.6141 29.0523C59.3307 30.194 56.6683 30.9014 54.099 30.9091H30.909C28.7752 30.9091 27.0454 29.1793 27.0454 27.0454C27.0454 24.9116 28.7752 23.1818 30.909 23.1818L54.0924 23.1811C55.4829 23.1348 56.9182 22.761 58.1585 22.1408C59.1491 21.6456 60.0219 20.9634 60.6559 20.0124C61.2737 19.0856 61.8181 17.6762 61.8181 15.4545C61.8181 13.2329 61.2737 11.8235 60.6559 10.8967C60.0219 9.94571 59.1491 9.26351 58.1585 8.76823C56.9121 8.1451 55.4636 7.76542 54.0638 7.72717Z" fill="white"/>
<path d="M3.86363 23.1818C1.72983 23.1818 0 24.9117 0 27.0455C0 29.1793 1.72983 30.9091 3.86363 30.9091H19.3182C21.452 30.9091 23.1818 29.1793 23.1818 27.0455C23.1818 24.9117 21.452 23.1818 19.3182 23.1818H3.86363Z" fill="white"/>
<path d="M3.86363 38.6364C1.72983 38.6364 0 40.3661 0 42.5C0 44.6339 1.72983 46.3636 3.86363 46.3636H42.5C44.6339 46.3636 46.3636 44.6339 46.3636 42.5C46.3636 40.3661 44.6339 38.6364 42.5 38.6364H3.86363Z" fill="white"/>
<path d="M3.86363 54.0909C1.72983 54.0909 0 55.8206 0 57.9545C0 60.0884 1.72983 61.8182 3.86363 61.8182H15.4545C17.5883 61.8182 19.3182 60.0884 19.3182 57.9545C19.3182 55.8206 17.5883 54.0909 15.4545 54.0909H3.86363Z" fill="white"/>
<path d="M65.6818 65.6818C65.6818 63.5572 67.3969 61.8328 69.5184 61.8182C70.9182 61.7799 72.3667 61.4005 73.6131 60.7773C74.6037 60.282 75.4765 59.5997 76.1105 58.6488C76.7283 57.7219 77.2727 56.3125 77.2727 54.0909C77.2727 51.8693 76.7283 50.4598 76.1105 49.533C75.4765 48.5821 74.6037 47.8998 73.6131 47.4045C72.3729 46.7844 70.9375 46.4108 69.547 46.3644L54.0909 46.3636C51.957 46.3636 50.2273 44.6339 50.2273 42.5C50.2273 40.3661 51.957 38.6364 54.0909 38.6364H69.5536C72.1229 38.6441 74.7853 39.3515 77.0687 40.4932C78.9758 41.4468 81.0008 42.9377 82.54 45.2466C84.0955 47.5799 85 50.517 85 54.0909C85 57.6648 84.0955 60.6019 82.54 62.9351C81.0008 65.244 78.9758 66.735 77.0687 67.6886C74.7776 68.8345 72.136 69.5184 69.5628 69.5454C67.4861 69.5516 65.6818 67.7612 65.6818 65.6818Z" fill="white"/>
<path d="M42.473 77.2727C40.3515 77.2874 38.6364 79.0117 38.6364 81.1363C38.6364 83.2157 40.4407 85.0061 42.5174 85C45.0906 84.9729 47.7322 84.289 50.0233 83.1431C51.9304 82.1896 53.9553 80.6986 55.4946 78.3897C57.0501 76.0564 57.9546 73.1193 57.9546 69.5454C57.9546 65.9716 57.0501 63.0344 55.4946 60.7012C53.9553 58.3923 51.9304 56.9013 50.0233 55.9477C47.7399 54.806 45.0775 54.0986 42.5082 54.0909H27.0455C24.9117 54.0909 23.1819 55.8206 23.1819 57.9545C23.1819 60.0884 24.9117 61.8182 27.0455 61.8182L42.5016 61.8189C43.8921 61.8653 45.3275 62.2389 46.5677 62.859C47.5583 63.3543 48.4311 64.0366 49.0651 64.9875C49.6829 65.9144 50.2273 67.3238 50.2273 69.5454C50.2273 71.767 49.6829 73.1765 49.0651 74.1034C48.4311 75.0542 47.5583 75.7365 46.5677 76.2318C45.3213 76.855 43.8728 77.2344 42.473 77.2727Z" fill="white"/>
</svg>
