<svg width="69" height="50" viewBox="0 0 69 50" fill="none" xmlns="http://www.w3.org/2000/svg">
<path d="M52.5105 12.6253C60.4435 12.2424 65.9232 13.4645 66.6767 16.2794C67.9907 21.1801 54.4861 29.0581 36.5096 33.8761C18.5361 38.6911 2.90281 38.6237 1.5888 33.7199C0.810806 30.8162 5.22759 26.8711 12.692 23.1374" stroke="#0b0f1a" stroke-width="3" stroke-linecap="round" stroke-linejoin="round"/>
<path fill-rule="evenodd" clip-rule="evenodd" d="M9.62942 24.9996C9.62997 21.7187 10.2894 18.4714 11.5685 15.4502C12.8476 12.429 14.7205 9.69539 17.0759 7.41157C19.4313 5.12775 22.2214 3.34019 25.2807 2.15493C28.34 0.969664 31.6061 0.410824 34.8854 0.511552C38.1647 0.61228 41.3904 1.37052 44.3711 2.74132C47.3519 4.11211 50.027 6.06753 52.2378 8.49161C54.4487 10.9157 56.1502 13.7591 57.2415 16.8531C58.3328 19.9471 58.7916 23.2288 58.5908 26.5035C53.5277 29.1958 46.633 31.8759 38.7827 33.9771C29.9797 36.3356 21.8568 37.4689 15.8779 37.4413C14.9006 37.4396 13.9238 37.3997 12.9497 37.3219C10.7689 33.5819 9.62295 29.3289 9.62942 24.9996ZM18.1016 43.5305C21.0529 46.0821 24.5707 47.8924 28.3625 48.811C32.1542 49.7295 36.1105 49.7297 39.9024 48.8115C43.6942 47.8934 47.2122 46.0834 50.1638 43.532C53.1154 40.9807 55.4153 37.7616 56.8725 34.1425C52.0912 36.2774 46.4584 38.2653 40.3662 39.8978C32.1942 42.0878 24.4143 43.313 18.1016 43.5305Z" fill="#0b0f1a" stroke="#0b0f1a"/>
</svg>
